<svg width="23" height="17" viewBox="0 0 23 17" fill="none" xmlns="http://www.w3.org/2000/svg">
<path d="M0 8.5V17H11.5H23V8.5V-1.90735e-06H11.5H0V8.5ZM20.3873 1.57668C20.3945 1.59606 19.3847 2.60197 17.0847 4.86746C11.7552 10.1154 12.1882 9.6944 12.066 9.75606C11.6923 9.9428 11.2053 9.90933 10.8945 9.67502C10.8154 9.61513 3.3907 2.26725 2.80492 1.66829C2.7618 1.62425 2.73305 1.58021 2.73844 1.56964C2.74742 1.55554 5.20734 1.55026 11.5647 1.55026C19.4152 1.55026 20.3784 1.55378 20.3873 1.57668ZM4.52813 5.57565C6.11836 7.15409 7.42109 8.45596 7.42109 8.46653C7.42109 8.48414 1.72859 14.2025 1.64773 14.2659C1.63156 14.28 1.61 14.2853 1.59922 14.2782C1.57945 14.2659 1.57227 2.77461 1.59203 2.72176C1.59922 2.7059 1.61 2.69534 1.61898 2.69886C1.62617 2.70238 2.93609 3.99544 4.52813 5.57565ZM21.4134 8.54404C21.417 12.166 21.4116 14.2518 21.4008 14.2694C21.3864 14.2906 21.3559 14.2694 21.2427 14.1549C19.7908 12.7121 15.6328 8.51762 15.6364 8.5C15.6454 8.45772 21.3541 2.83803 21.3828 2.84155C21.4062 2.84508 21.4098 3.49337 21.4134 8.54404ZM9.18203 10.193C9.52344 10.5277 9.86305 10.8483 9.93672 10.9029C10.4093 11.2588 10.9969 11.4332 11.6402 11.4103C12.057 11.3962 12.42 11.3063 12.7632 11.1354C13.0902 10.9716 13.1927 10.8888 13.8557 10.2317C14.2348 9.85648 14.4882 9.61689 14.5062 9.62218C14.5439 9.63098 20.2885 15.3987 20.2813 15.4216C20.2759 15.4356 17.8142 15.4409 11.5072 15.4409C3.53445 15.4409 2.74023 15.4392 2.74023 15.4127C2.74023 15.3828 8.51359 9.58342 8.54414 9.58342C8.55492 9.58342 8.84063 9.85824 9.18203 10.193Z" fill="black"/>
</svg>
