<svg width="10" height="14" viewBox="0 0 10 14" fill="none" xmlns="http://www.w3.org/2000/svg">
<path d="M3.08751 13.0763C2.98485 13.0355 2.17063 12.5574 2.12001 12.5082C2.00329 12.3957 1.97798 12.2213 2.05673 12.0694C2.17767 11.8346 3.68235 9.24991 3.72313 9.20772C3.80892 9.11631 3.95798 9.07413 4.07892 9.10788C4.15485 9.12756 5.02251 9.62959 5.08439 9.68866C5.18001 9.77866 5.22079 9.94038 5.18001 10.0599C5.16876 10.0908 4.79329 10.7532 4.3447 11.5294C3.78923 12.4927 3.5122 12.9596 3.47282 12.999C3.37579 13.0974 3.21829 13.1298 3.08751 13.0763Z" fill="black"/>
<path d="M1.51252 11.843C0.546426 11.2482 0.30877 10.7349 0.438145 9.53115C0.677207 7.30928 2.22549 4.28022 4.11408 2.341C4.64986 1.78834 5.30518 1.28631 5.76361 1.07396C6.03643 0.947402 6.22627 0.903809 6.51174 0.903809C6.80846 0.905215 7.0208 0.954434 7.35549 1.1035C7.52565 1.17943 7.88424 1.3735 7.87861 1.38615C7.8758 1.39178 7.49471 2.05131 7.03346 2.85287L6.19252 4.31115L6.10533 4.27178C5.57377 4.0299 4.95643 4.21975 4.34471 4.81037C3.96783 5.17459 3.65283 5.61193 3.39268 6.13506C3.07205 6.77912 2.91877 7.34725 2.91596 7.8999C2.91455 8.26975 2.97924 8.51303 3.13815 8.7535C3.21127 8.86318 3.31674 8.97146 3.40111 9.02209C3.42221 9.03475 3.43908 9.05303 3.43908 9.06287C3.43908 9.07271 3.2633 9.38631 3.04674 9.75897C2.83158 10.133 2.45611 10.7827 2.21283 11.2046C1.96955 11.6265 1.76143 11.9724 1.75018 11.9752C1.73893 11.9766 1.63205 11.9176 1.51252 11.843Z" fill="black"/>
<path d="M7.55236 5.48116C7.48205 5.46991 7.45814 5.45725 6.97017 5.176C6.74939 5.04944 6.54689 4.92429 6.52017 4.90038C6.42033 4.80475 6.37955 4.64444 6.42595 4.51647C6.4597 4.42085 8.06564 1.65194 8.11908 1.5971C8.22314 1.48741 8.3933 1.45507 8.5297 1.51694C8.67455 1.58163 9.43673 2.03303 9.48595 2.08225C9.56189 2.15678 9.58861 2.23553 9.58298 2.3621L9.57736 2.46475L8.90377 3.63194C8.53252 4.2746 8.16267 4.91444 8.08111 5.05647C7.99955 5.1985 7.91236 5.33913 7.88705 5.36866C7.81111 5.45725 7.67752 5.50225 7.55236 5.48116Z" fill="black"/>
</svg>
