<svg width="41" height="41" viewBox="0 0 41 41" fill="none" xmlns="http://www.w3.org/2000/svg">
<path d="M30.8572 16.5331C30.8572 14.6582 29.4347 13.15 27.6771 13.15C25.2963 13.0417 22.8682 13 20.3886 13C20.2596 13 20.1307 13 20.0018 13C19.8729 13 19.7439 13 19.615 13C17.1397 13 14.7073 13.0417 12.3265 13.15C10.5731 13.15 9.15068 14.6666 9.15068 16.5415C9.04324 18.0247 8.99597 19.508 9.00027 20.9912C8.99597 22.4745 9.04324 23.9577 9.14638 25.4451C9.14638 27.32 10.5688 28.8408 12.3222 28.8408C14.8233 28.9533 17.3889 29.0033 19.9975 28.9991C22.6103 29.0074 25.1673 28.9574 27.6728 28.8408C29.4304 28.8408 30.8529 27.32 30.8529 25.4451C30.956 23.9577 31.0033 22.4745 30.999 20.9871C31.0076 19.5038 30.9603 18.0206 30.8572 16.5331ZM17.896 25.0785V16.8914L24.1274 20.9829L17.896 25.0785Z" fill="black"/>
<path d="M39.5 20.5C39.5 31.2812 30.8699 40 20.25 40C9.63005 40 1 31.2812 1 20.5C1 9.71884 9.63005 1 20.25 1C30.8699 1 39.5 9.71884 39.5 20.5Z" stroke="black" stroke-width="2"/>
</svg>
