<?xml version="1.0" encoding="UTF-8"?>
<!DOCTYPE svg PUBLIC "-//W3C//DTD SVG 1.1//EN" "http://www.w3.org/Graphics/SVG/1.1/DTD/svg11.dtd">
<!-- Creator: CorelDRAW -->
<svg xmlns="http://www.w3.org/2000/svg" xml:space="preserve" width="1.3547mm" height="1.3547mm" version="1.1" style="shape-rendering:geometricPrecision; text-rendering:geometricPrecision; image-rendering:optimizeQuality; fill-rule:evenodd; clip-rule:evenodd"
viewBox="0 0 135.46 135.46"
 xmlns:xlink="http://www.w3.org/1999/xlink"
 xmlns:xodm="http://www.corel.com/coreldraw/odm/2003">
 <defs>
  <style type="text/css">
   <![CDATA[
    .fil0 {fill:#A8D4AF}
    .fil1 {fill:#405952;fill-rule:nonzero}
   ]]>
  </style>
 </defs>
 <g id="Слой_x0020_1">
  <metadata id="CorelCorpID_0Corel-Layer"/>
  <g id="_2019455734320">
   <rect class="fil0" x="0" y="0" width="135.46" height="135.46" rx="18.08" ry="21.17"/>
   <path class="fil1" d="M64.68 87.23c0,5.45 -0.71,9.38 -2.13,11.75 -1.4,2.4 -3.56,3.88 -6.44,4.48 -2.88,0.6 -7.47,0.91 -13.77,0.91l-22.03 0 0 -73.27 37.33 0 0 12.69 -18.25 0 0 12.41 2.95 0c5.87,0 10.33,0.34 13.34,1.04 3.01,0.69 5.27,2.22 6.76,4.6 1.5,2.36 2.24,6.09 2.24,11.15l0 14.25zm-19.08 -2.2l0 -10.6c0,-3.09 -0.31,-4.95 -0.93,-5.62 -0.62,-0.66 -2.38,-1.03 -5.28,-1.13l0 24.09c2.43,0 4.06,-0.31 4.91,-0.92 0.87,-0.62 1.3,-2.57 1.3,-5.82zm69.55 -53.94l0 73.27 -19.08 0 0 -30.76 -5.56 0 0 30.76 -19.08 0 0 -73.27 19.08 0 0 26.21 5.56 0 0 -26.21 19.08 0z"/>
  </g>
 </g>
</svg>
