<?xml version="1.0" encoding="UTF-8"?>
<!DOCTYPE svg PUBLIC "-//W3C//DTD SVG 1.1//EN" "http://www.w3.org/Graphics/SVG/1.1/DTD/svg11.dtd">
<!-- Creator: CorelDRAW -->
<svg xmlns="http://www.w3.org/2000/svg" xml:space="preserve" width="2.7093mm" height="2.7093mm" version="1.1" style="shape-rendering:geometricPrecision; text-rendering:geometricPrecision; image-rendering:optimizeQuality; fill-rule:evenodd; clip-rule:evenodd"
viewBox="0 0 270.92 270.92"
 xmlns:xlink="http://www.w3.org/1999/xlink"
 xmlns:xodm="http://www.corel.com/coreldraw/odm/2003">
 <defs>
  <style type="text/css">
   <![CDATA[
    .fil0 {fill:#A8D4AF}
    .fil1 {fill:#405952;fill-rule:nonzero}
   ]]>
  </style>
 </defs>
 <g id="Слой_x0020_1">
  <metadata id="CorelCorpID_0Corel-Layer"/>
  <g id="_2019455741520">
   <rect class="fil0" x="0" y="0" width="270.92" height="270.92" rx="36.16" ry="42.33"/>
   <path class="fil1" d="M129.36 174.46c0,10.9 -1.42,18.75 -4.26,23.5 -2.81,4.79 -7.13,7.75 -12.88,8.96 -5.77,1.2 -14.95,1.82 -27.54,1.82l-44.07 0 0 -146.55 74.67 0 0 25.38 -36.5 0 0 24.83 5.9 0c11.73,0 20.65,0.68 26.68,2.07 6.02,1.39 10.53,4.45 13.52,9.2 3,4.73 4.48,12.17 4.48,22.3l0 28.5zm-38.17 -4.41l0 -21.19c0,-6.18 -0.62,-9.91 -1.85,-11.24 -1.24,-1.33 -4.76,-2.07 -10.56,-2.25l0 48.17c4.85,0 8.12,-0.62 9.82,-1.85 1.73,-1.24 2.59,-5.13 2.59,-11.64zm139.11 -107.87l0 146.55 -38.17 0 0 -61.52 -11.11 0 0 61.52 -38.17 0 0 -146.55 38.17 0 0 52.43 11.11 0 0 -52.43 38.17 0z"/>
  </g>
 </g>
</svg>
